<?xml version="1.0" encoding="UTF-8" standalone="no"?>
<svg xmlns="http://www.w3.org/2000/svg" width="52" height="52" viewBox="0 0 52 52">
    <path id="Combined-Shape" d="M4,2.007H4V49.993A1.991,1.991,0,0,0,2.007,48H49.993A1.991,1.991,0,0,0,48,49.993V2.007A1.991,1.991,0,0,0,49.993,4H2.007A1.991,1.991,0,0,0,4,2.007Zm-4,0A2.009,2.009,0,0,1,2.007,0H49.993A2.009,2.009,0,0,1,52,2.007V49.993A2.009,2.009,0,0,1,49.993,52H2.007A2.009,2.009,0,0,1,0,49.993V2.007Z"/>
    <path id="check" d="M245.5,357.612a3,3,0,0,1-1.92-.7l-12-10a3,3,0,1,1,3.841-4.609l9.48,7.9,16.133-23.3a3,3,0,1,1,4.933,3.415l-18,26a3,3,0,0,1-2.467,1.292Z" transform="translate(-222.496 -315.612)"/>
</svg>
