<?xml version="1.0" encoding="UTF-8" standalone="no"?>
<svg
   width="56"
   height="56"
   version="1.1"
   id="svg47"
   sodipodi:docname="compass-outer.svg"
   inkscape:version="1.2.1 (9c6d41e410, 2022-07-14)"
   xmlns:inkscape="http://www.inkscape.org/namespaces/inkscape"
   xmlns:sodipodi="http://sodipodi.sourceforge.net/DTD/sodipodi-0.dtd"
   xmlns="http://www.w3.org/2000/svg"
   xmlns:svg="http://www.w3.org/2000/svg">
  <defs
     id="defs51" />
  <sodipodi:namedview
     id="namedview49"
     pagecolor="#ffffff"
     bordercolor="#000000"
     borderopacity="0.25"
     inkscape:showpageshadow="2"
     inkscape:pageopacity="0.0"
     inkscape:pagecheckerboard="0"
     inkscape:deskcolor="#d1d1d1"
     showgrid="false"
     inkscape:zoom="22.928571"
     inkscape:cx="28"
     inkscape:cy="28"
     inkscape:window-width="2560"
     inkscape:window-height="1529"
     inkscape:window-x="-8"
     inkscape:window-y="-8"
     inkscape:window-maximized="1"
     inkscape:current-layer="g45" />
  <g
     fill-rule="evenodd"
     id="g45">
    <path
       d="M28 0c15.464 0 28 12.536 28 28S43.464 56 28 56 0 43.464 0 28 12.536 0 28 0zm0 10c-9.941 0-18 8.059-18 18s8.059 18 18 18 18-8.059 18-18-8.059-18-18-18z"
       fill="#FFF"
       id="path31" />
    <circle
       opacity=".75"
       cx="46"
       cy="13"
       r="1"
       id="circle33" />
    <circle
       opacity=".75"
       cx="46"
       cy="43"
       r="1"
       id="circle35" />
    <circle
       opacity=".75"
       cx="10"
       cy="43"
       r="1"
       id="circle37" />
    <circle
       opacity=".75"
       cx="10"
       cy="13"
       r="1"
       id="circle39" />
    <path
       stroke="#000"
       opacity=".75"
       stroke-linecap="round"
       d="M49 28h4M3 28h4M28 49v4"
       id="path41" />
    <path
       d="M 26.000133,9.4423676 V 5.127132 c 0,-0.5222805 -0.04031,-1.395602 -0.123175,-2.6199645 h 0.05823 l 4.174516,6.9352001 H 32.69414 V 0.2746324 h -1.83195 v 4.3387811 c 0,0.4923135 0.03359,1.3356681 0.09854,2.5257827 H 30.91594 L 26.750381,0.2746324 H 24.18386 v 9.1677352 h 1.818512 z"
       fill-rule="nonzero"
       opacity="0.75"
       id="path43"
       style="stroke-width:2.18946" />
  </g>
</svg>
